<mxfile host="app.diagrams.net" modified="2023-07-05T03:17:58.434Z" agent="Mozilla/5.0 (X11; Linux x86_64) AppleWebKit/537.36 (KHTML, like Gecko) Chrome/114.0.0.0 Safari/537.36" etag="9zeLAf_Y14FmTvrVvK2_" version="21.5.2" type="github">
  <diagram name="Page-1" id="znM8gPd4nr-B5Jry82K4">
    <mxGraphModel dx="7782" dy="1210" grid="1" gridSize="10" guides="1" tooltips="1" connect="1" arrows="1" fold="1" page="1" pageScale="1" pageWidth="1169" pageHeight="827" math="0" shadow="0">
      <root>
        <mxCell id="0" />
        <mxCell id="1" parent="0" />
        <mxCell id="NsxSfpwMTWUYGSY4X4gR-44" value="Public subnet" style="points=[[0,0],[0.25,0],[0.5,0],[0.75,0],[1,0],[1,0.25],[1,0.5],[1,0.75],[1,1],[0.75,1],[0.5,1],[0.25,1],[0,1],[0,0.75],[0,0.5],[0,0.25]];outlineConnect=0;gradientColor=none;html=1;whiteSpace=wrap;fontSize=12;fontStyle=0;container=1;pointerEvents=0;collapsible=0;recursiveResize=0;shape=mxgraph.aws4.group;grIcon=mxgraph.aws4.group_security_group;grStroke=0;strokeColor=#248814;fillColor=#E9F3E6;verticalAlign=top;align=left;spacingLeft=30;fontColor=#248814;dashed=0;strokeWidth=2;" parent="1" vertex="1">
          <mxGeometry x="-5860" y="-100" width="159.5" height="164" as="geometry" />
        </mxCell>
        <mxCell id="NsxSfpwMTWUYGSY4X4gR-43" value="Public subnet" style="points=[[0,0],[0.25,0],[0.5,0],[0.75,0],[1,0],[1,0.25],[1,0.5],[1,0.75],[1,1],[0.75,1],[0.5,1],[0.25,1],[0,1],[0,0.75],[0,0.5],[0,0.25]];outlineConnect=0;gradientColor=none;html=1;whiteSpace=wrap;fontSize=12;fontStyle=0;container=1;pointerEvents=0;collapsible=0;recursiveResize=0;shape=mxgraph.aws4.group;grIcon=mxgraph.aws4.group_security_group;grStroke=0;strokeColor=#248814;fillColor=#E9F3E6;verticalAlign=top;align=left;spacingLeft=30;fontColor=#248814;dashed=0;strokeWidth=2;" parent="1" vertex="1">
          <mxGeometry x="-5540.5" y="-180" width="149.5" height="142" as="geometry" />
        </mxCell>
        <mxCell id="BC36M6veNqZihQO0rV40-52" value="AWS Cloud" style="points=[[0,0],[0.25,0],[0.5,0],[0.75,0],[1,0],[1,0.25],[1,0.5],[1,0.75],[1,1],[0.75,1],[0.5,1],[0.25,1],[0,1],[0,0.75],[0,0.5],[0,0.25]];outlineConnect=0;gradientColor=none;html=1;whiteSpace=wrap;fontSize=12;fontStyle=0;container=0;pointerEvents=0;collapsible=0;recursiveResize=0;shape=mxgraph.aws4.group;grIcon=mxgraph.aws4.group_aws_cloud_alt;strokeColor=#4D9900;fillColor=none;verticalAlign=top;align=left;spacingLeft=30;fontColor=#232F3E;dashed=0;strokeWidth=2;" parent="1" vertex="1">
          <mxGeometry x="-6210" y="-490" width="941" height="732" as="geometry" />
        </mxCell>
        <mxCell id="BC36M6veNqZihQO0rV40-4" value="" style="points=[[0.714,0.338,0],[0.549,0.2,0],[0.85,0.198,0]];html=1;overflow=block;blockSpacing=1;whiteSpace=wrap;fontSize=13;spacing=3.8;strokeColor=#3a414a;strokeOpacity=100;fillOpacity=100;rounded=1;absoluteArcSize=1;arcSize=9;fillColor=#cfe4ff;strokeWidth=7.5;lucidId=tHR.RqMFKNO4;" parent="1" vertex="1">
          <mxGeometry x="-6752" y="-415" width="423" height="304" as="geometry" />
        </mxCell>
        <mxCell id="BC36M6veNqZihQO0rV40-79" style="edgeStyle=orthogonalEdgeStyle;rounded=0;orthogonalLoop=1;jettySize=auto;html=1;strokeWidth=3;" parent="1" source="BC36M6veNqZihQO0rV40-5" target="BC36M6veNqZihQO0rV40-57" edge="1">
          <mxGeometry relative="1" as="geometry" />
        </mxCell>
        <mxCell id="BC36M6veNqZihQO0rV40-5" value="" style="html=1;overflow=block;blockSpacing=1;whiteSpace=wrap;shape=image;fontSize=13;spacing=0;strokeColor=none;strokeOpacity=100;strokeWidth=0;image=https://images.lucid.app/images/0839ae5e-1928-40da-9dd1-2a745bce146e/content;imageAspect=0;lucidId=lZQ.nhfzFDih;" parent="1" vertex="1">
          <mxGeometry x="-6496" y="-309" width="91" height="60" as="geometry" />
        </mxCell>
        <mxCell id="BC36M6veNqZihQO0rV40-6" value="" style="html=1;overflow=block;blockSpacing=1;whiteSpace=wrap;shape=image;fontSize=13;spacing=0;strokeColor=none;strokeOpacity=100;strokeWidth=0;image=https://images.lucid.app/images/5dbf9200-86ef-41af-bba9-ffb445953cea/content;imageAspect=0;lucidId=1ZQ.fj6Nxm91;" parent="1" vertex="1">
          <mxGeometry x="-6693" y="-387" width="73" height="69" as="geometry" />
        </mxCell>
        <mxCell id="BC36M6veNqZihQO0rV40-7" value="" style="html=1;overflow=block;blockSpacing=1;whiteSpace=wrap;shape=image;fontSize=13;spacing=0;strokeColor=none;strokeOpacity=100;strokeWidth=0;image=https://images.lucid.app/images/7aab2980-8390-469f-9542-503a8dc7d49c/content;imageAspect=0;lucidId=39Q.k~S7HBWE;" parent="1" vertex="1">
          <mxGeometry x="-6517" y="-649" width="133" height="113" as="geometry" />
        </mxCell>
        <mxCell id="BC36M6veNqZihQO0rV40-8" value="" style="html=1;overflow=block;blockSpacing=1;whiteSpace=wrap;shape=image;fontSize=13;spacing=0;strokeColor=none;strokeOpacity=100;strokeWidth=0;image=https://images.lucid.app/images/96fd7c5d-47f8-4f27-a543-2824d02b5435/content;imageAspect=0;lucidId=p~Q.Xl.0O8On;" parent="1" vertex="1">
          <mxGeometry x="-6737" y="-634" width="76" height="76" as="geometry" />
        </mxCell>
        <mxCell id="BC36M6veNqZihQO0rV40-9" value="" style="html=1;jettySize=18;whiteSpace=wrap;fontSize=13;strokeColor=#3a414a;strokeOpacity=100;strokeWidth=3.8;rounded=1;arcSize=12;edgeStyle=orthogonalEdgeStyle;startArrow=none;endArrow=block;endFill=1;exitX=0.5;exitY=1;exitPerimeter=0;lucidId=YYS.RZbuwzPK;" parent="1" edge="1">
          <mxGeometry width="100" height="100" relative="1" as="geometry">
            <Array as="points">
              <mxPoint x="-6702" y="-520" />
              <mxPoint x="-6567" y="-520" />
              <mxPoint x="-6567" y="-279" />
            </Array>
            <mxPoint x="-6702" y="-558" as="sourcePoint" />
            <mxPoint x="-6478" y="-279" as="targetPoint" />
          </mxGeometry>
        </mxCell>
        <mxCell id="BC36M6veNqZihQO0rV40-10" value="VM- 1" style="html=1;overflow=block;blockSpacing=1;whiteSpace=wrap;fontSize=16.7;fontColor=#3a414a;spacing=3.8;strokeOpacity=0;fillOpacity=0;rounded=1;absoluteArcSize=1;arcSize=9;fillColor=#ffffff;strokeWidth=0.8;lucidId=PZS.uT0q8Rq6;" parent="1" vertex="1">
          <mxGeometry x="-6702" y="-309" width="91" height="25" as="geometry" />
        </mxCell>
        <mxCell id="BC36M6veNqZihQO0rV40-11" value="" style="html=1;overflow=block;blockSpacing=1;whiteSpace=wrap;shape=image;fontSize=13;spacing=0;strokeColor=none;strokeOpacity=100;strokeWidth=0;image=https://images.lucid.app/images/77aa2bb6-9937-4ae3-a3e1-917ee15fafa7/content;imageAspect=0;lucidId=PaT.EkcdLVLc;" parent="1" vertex="1">
          <mxGeometry x="-6702" y="-228" width="110" height="26" as="geometry" />
        </mxCell>
        <mxCell id="BC36M6veNqZihQO0rV40-12" value="OS" style="html=1;overflow=block;blockSpacing=1;whiteSpace=wrap;fontSize=16.7;fontColor=#3a414a;spacing=3.8;strokeOpacity=0;fillOpacity=0;rounded=1;absoluteArcSize=1;arcSize=9;fillColor=#ffffff;strokeWidth=0.8;lucidId=~aT.bKo5OBzp;" parent="1" vertex="1">
          <mxGeometry x="-6687" y="-199" width="60" height="35" as="geometry" />
        </mxCell>
        <mxCell id="BC36M6veNqZihQO0rV40-13" value="Source Code Repo" style="html=1;overflow=block;blockSpacing=1;whiteSpace=wrap;fontSize=16.7;fontColor=#3a414a;fontStyle=1;spacing=3.8;strokeOpacity=0;fillOpacity=0;rounded=1;absoluteArcSize=1;arcSize=9;fillColor=#ffffff;strokeWidth=0.8;lucidId=rfT.Em8CiN_r;" parent="1" vertex="1">
          <mxGeometry x="-6790" y="-690" width="189" height="43" as="geometry" />
        </mxCell>
        <mxCell id="BC36M6veNqZihQO0rV40-14" value="" style="shape=doubleArrow;arrowWidth=0.5;arrowSize=0.20134228187919462;whiteSpace=wrap;fontSize=13;spacing=3.8;strokeColor=#3a414a;strokeOpacity=100;rounded=1;absoluteArcSize=1;arcSize=9;rotation=-270;strokeWidth=3;html=1;" parent="1" vertex="1">
          <mxGeometry x="-6555" y="-460" width="209" height="60" as="geometry" />
        </mxCell>
        <mxCell id="BC36M6veNqZihQO0rV40-15" value="Docker Hub" style="html=1;overflow=block;blockSpacing=1;whiteSpace=wrap;fontSize=16.7;fontColor=#3a414a;fontStyle=1;spacing=3.8;strokeOpacity=0;fillOpacity=0;rounded=1;absoluteArcSize=1;arcSize=9;fillColor=#ffffff;strokeWidth=0.8;lucidId=KgT.KoDKqtLL;" parent="1" vertex="1">
          <mxGeometry x="-6541" y="-690" width="181" height="43" as="geometry" />
        </mxCell>
        <mxCell id="BC36M6veNqZihQO0rV40-17" value="Docker Image Push/Pull" style="html=1;overflow=block;blockSpacing=1;whiteSpace=wrap;fontSize=16.7;fontColor=#3a414a;fontStyle=1;spacing=3.8;strokeOpacity=0;fillOpacity=0;rounded=1;absoluteArcSize=1;arcSize=9;fillColor=#ffffff;strokeWidth=0.8;lucidId=Dp-.tNbPMVZ.;" parent="1" vertex="1">
          <mxGeometry x="-6428" y="-486" width="128" height="53" as="geometry" />
        </mxCell>
        <mxCell id="BC36M6veNqZihQO0rV40-18" value="Code Pull From Github" style="html=1;overflow=block;blockSpacing=1;whiteSpace=wrap;fontSize=16.7;fontColor=#3a414a;fontStyle=1;spacing=3.8;strokeOpacity=0;fillOpacity=0;rounded=1;absoluteArcSize=1;arcSize=9;fillColor=#ffffff;strokeWidth=0.8;lucidId=_p-.m4A0VA30;" parent="1" vertex="1">
          <mxGeometry x="-6715" y="-502" width="138" height="43" as="geometry" />
        </mxCell>
        <mxCell id="BC36M6veNqZihQO0rV40-19" value="AWS EC2 Deployment Pipeline" style="html=1;overflow=block;blockSpacing=1;whiteSpace=wrap;fontSize=13.3;fontColor=#333333;fontStyle=1;align=center;spacing=3.8;strokeOpacity=0;fillOpacity=0;rounded=1;absoluteArcSize=1;arcSize=9;fillColor=#ffffff;strokeWidth=0.8;lucidId=1q-.gLM~SQ97;" parent="1" vertex="1">
          <mxGeometry x="-6329" y="-270" width="119" height="48" as="geometry" />
        </mxCell>
        <mxCell id="BC36M6veNqZihQO0rV40-20" value="" style="html=1;overflow=block;blockSpacing=1;whiteSpace=wrap;shape=image;fontSize=13;spacing=0;strokeColor=none;strokeOpacity=100;strokeWidth=0;image=https://images.lucid.app/images/9f01b302-5040-4e6e-be54-d4b0a862a444/content;imageAspect=0;lucidId=st-.MnG1-Kka;" parent="1" vertex="1">
          <mxGeometry x="-6896" y="-615" width="52" height="46" as="geometry" />
        </mxCell>
        <mxCell id="BC36M6veNqZihQO0rV40-21" value="" style="html=1;jettySize=18;whiteSpace=wrap;fontSize=13;strokeColor=#3a414a;strokeOpacity=100;strokeWidth=3.8;rounded=1;arcSize=12;edgeStyle=orthogonalEdgeStyle;startArrow=none;endArrow=block;endFill=1;exitX=1;exitY=0.5;exitPerimeter=0;entryX=0;entryY=0.55;entryPerimeter=0;lucidId=3t-.5YrvoPGL;" parent="1" source="BC36M6veNqZihQO0rV40-20" target="BC36M6veNqZihQO0rV40-8" edge="1">
          <mxGeometry width="100" height="100" relative="1" as="geometry">
            <Array as="points" />
          </mxGeometry>
        </mxCell>
        <mxCell id="BC36M6veNqZihQO0rV40-22" value="Code Push" style="html=1;overflow=block;blockSpacing=1;whiteSpace=wrap;fontSize=16.7;fontColor=#3a414a;fontStyle=1;spacing=3.8;strokeOpacity=0;fillOpacity=0;rounded=1;absoluteArcSize=1;arcSize=9;fillColor=#ffffff;strokeWidth=0.8;lucidId=mu-.389LFaOt;" parent="1" vertex="1">
          <mxGeometry x="-6840" y="-582" width="103" height="34" as="geometry" />
        </mxCell>
        <mxCell id="BC36M6veNqZihQO0rV40-47" value="&lt;b&gt;&lt;font style=&quot;font-size: 14px;&quot;&gt;Local Machine&lt;/font&gt;&lt;/b&gt;" style="text;html=1;strokeColor=none;fillColor=none;align=center;verticalAlign=middle;whiteSpace=wrap;rounded=0;" parent="1" vertex="1">
          <mxGeometry x="-6596" y="-100" width="118.5" height="30" as="geometry" />
        </mxCell>
        <mxCell id="NsxSfpwMTWUYGSY4X4gR-20" value="" style="outlineConnect=0;dashed=0;verticalLabelPosition=bottom;verticalAlign=top;align=center;html=1;shape=mxgraph.aws3.users;fillColor=#e1d5e7;strokeColor=#9673a6;" parent="1" vertex="1">
          <mxGeometry x="-5210" y="-326.75" width="66" height="63" as="geometry" />
        </mxCell>
        <mxCell id="NsxSfpwMTWUYGSY4X4gR-19" style="edgeStyle=orthogonalEdgeStyle;rounded=0;orthogonalLoop=1;jettySize=auto;html=1;" parent="1" source="NsxSfpwMTWUYGSY4X4gR-16" target="NsxSfpwMTWUYGSY4X4gR-20" edge="1">
          <mxGeometry relative="1" as="geometry">
            <mxPoint x="-5240" y="-295.25" as="targetPoint" />
          </mxGeometry>
        </mxCell>
        <mxCell id="BC36M6veNqZihQO0rV40-73" value="" style="outlineConnect=0;dashed=0;verticalLabelPosition=bottom;verticalAlign=top;align=center;html=1;shape=mxgraph.aws3.internet_gateway;fillColor=#F58534;gradientColor=none;" parent="1" vertex="1">
          <mxGeometry x="-5818" y="-354" width="69" height="72" as="geometry" />
        </mxCell>
        <mxCell id="NsxSfpwMTWUYGSY4X4gR-9" value="Region" style="points=[[0,0],[0.25,0],[0.5,0],[0.75,0],[1,0],[1,0.25],[1,0.5],[1,0.75],[1,1],[0.75,1],[0.5,1],[0.25,1],[0,1],[0,0.75],[0,0.5],[0,0.25]];outlineConnect=0;gradientColor=none;html=1;whiteSpace=wrap;fontSize=12;fontStyle=0;container=0;pointerEvents=0;collapsible=0;recursiveResize=0;shape=mxgraph.aws4.group;grIcon=mxgraph.aws4.group_region;strokeColor=#147EBA;fillColor=none;verticalAlign=top;align=left;spacingLeft=30;fontColor=#147EBA;dashed=1;" parent="1" vertex="1">
          <mxGeometry x="-6190" y="-450" width="891" height="672" as="geometry" />
        </mxCell>
        <mxCell id="BC36M6veNqZihQO0rV40-76" value="" style="endArrow=classic;html=1;rounded=0;entryX=0;entryY=0.5;entryDx=0;entryDy=0;entryPerimeter=0;" parent="1" target="BC36M6veNqZihQO0rV40-73" edge="1">
          <mxGeometry width="50" height="50" relative="1" as="geometry">
            <mxPoint x="-5966" y="-319" as="sourcePoint" />
            <mxPoint x="-5831" y="-319" as="targetPoint" />
          </mxGeometry>
        </mxCell>
        <mxCell id="NsxSfpwMTWUYGSY4X4gR-29" value="" style="edgeStyle=orthogonalEdgeStyle;rounded=0;orthogonalLoop=1;jettySize=auto;html=1;" parent="1" source="BC36M6veNqZihQO0rV40-72" target="BC36M6veNqZihQO0rV40-73" edge="1">
          <mxGeometry relative="1" as="geometry" />
        </mxCell>
        <mxCell id="BC36M6veNqZihQO0rV40-54" value="VPC" style="points=[[0,0],[0.25,0],[0.5,0],[0.75,0],[1,0],[1,0.25],[1,0.5],[1,0.75],[1,1],[0.75,1],[0.5,1],[0.25,1],[0,1],[0,0.75],[0,0.5],[0,0.25]];outlineConnect=0;gradientColor=none;html=1;whiteSpace=wrap;fontSize=12;fontStyle=0;container=0;pointerEvents=0;collapsible=0;recursiveResize=0;shape=mxgraph.aws4.group;grIcon=mxgraph.aws4.group_vpc;strokeColor=#004C99;fillColor=none;verticalAlign=top;align=left;spacingLeft=30;fontColor=#AAB7B8;dashed=0;strokeWidth=2;" parent="1" vertex="1">
          <mxGeometry x="-6170" y="-420" width="840" height="620" as="geometry" />
        </mxCell>
        <mxCell id="NsxSfpwMTWUYGSY4X4gR-10" value="Availability Zone" style="fillColor=none;strokeColor=#147EBA;dashed=1;verticalAlign=top;fontStyle=0;fontColor=#147EBA;whiteSpace=wrap;html=1;container=0;strokeWidth=2;" parent="1" vertex="1">
          <mxGeometry x="-6140" y="-390" width="301" height="572" as="geometry" />
        </mxCell>
        <mxCell id="NsxSfpwMTWUYGSY4X4gR-24" style="edgeStyle=orthogonalEdgeStyle;rounded=0;orthogonalLoop=1;jettySize=auto;html=1;" parent="1" source="BC36M6veNqZihQO0rV40-56" target="BC36M6veNqZihQO0rV40-72" edge="1">
          <mxGeometry relative="1" as="geometry" />
        </mxCell>
        <mxCell id="BC36M6veNqZihQO0rV40-56" value="Public subnet" style="points=[[0,0],[0.25,0],[0.5,0],[0.75,0],[1,0],[1,0.25],[1,0.5],[1,0.75],[1,1],[0.75,1],[0.5,1],[0.25,1],[0,1],[0,0.75],[0,0.5],[0,0.25]];outlineConnect=0;gradientColor=none;html=1;whiteSpace=wrap;fontSize=12;fontStyle=0;container=0;pointerEvents=0;collapsible=0;recursiveResize=0;shape=mxgraph.aws4.group;grIcon=mxgraph.aws4.group_security_group;grStroke=0;strokeColor=#248814;fillColor=#E9F3E6;verticalAlign=top;align=left;spacingLeft=30;fontColor=#248814;strokeWidth=2;" parent="1" vertex="1">
          <mxGeometry x="-6105" y="-368" width="210" height="210" as="geometry" />
        </mxCell>
        <mxCell id="BC36M6veNqZihQO0rV40-59" value="Private subnet" style="points=[[0,0],[0.25,0],[0.5,0],[0.75,0],[1,0],[1,0.25],[1,0.5],[1,0.75],[1,1],[0.75,1],[0.5,1],[0.25,1],[0,1],[0,0.75],[0,0.5],[0,0.25]];outlineConnect=0;gradientColor=none;html=1;whiteSpace=wrap;fontSize=12;fontStyle=0;container=1;pointerEvents=0;collapsible=0;recursiveResize=0;shape=mxgraph.aws4.group;grIcon=mxgraph.aws4.group_security_group;grStroke=0;strokeColor=#147EBA;fillColor=#E6D0DE;verticalAlign=top;align=left;spacingLeft=30;fontColor=#147EBA;dashed=0;strokeWidth=2;" parent="1" vertex="1">
          <mxGeometry x="-6120" y="-124" width="249" height="294" as="geometry" />
        </mxCell>
        <mxCell id="BC36M6veNqZihQO0rV40-65" value="" style="rounded=0;whiteSpace=wrap;html=1;strokeColor=#0000FF;fillColor=none;dashed=1;strokeWidth=2;" parent="BC36M6veNqZihQO0rV40-59" vertex="1">
          <mxGeometry x="30" y="47" width="160" height="163" as="geometry" />
        </mxCell>
        <mxCell id="BC36M6veNqZihQO0rV40-60" value="" style="whiteSpace=wrap;html=1;aspect=fixed;strokeColor=default;strokeWidth=2;fillColor=none;dashed=1;" parent="BC36M6veNqZihQO0rV40-59" vertex="1">
          <mxGeometry x="8" y="33" width="229" height="229" as="geometry" />
        </mxCell>
        <mxCell id="BC36M6veNqZihQO0rV40-62" value="Amazon EC2" style="sketch=0;outlineConnect=0;fontColor=#232F3E;gradientColor=none;strokeColor=#ffffff;fillColor=#232F3E;dashed=0;verticalLabelPosition=middle;verticalAlign=bottom;align=center;html=1;whiteSpace=wrap;fontSize=10;fontStyle=1;spacing=3;shape=mxgraph.aws4.productIcon;prIcon=mxgraph.aws4.ec2;" parent="BC36M6veNqZihQO0rV40-59" vertex="1">
          <mxGeometry x="75" y="54" width="70" height="90" as="geometry" />
        </mxCell>
        <mxCell id="BC36M6veNqZihQO0rV40-63" value="Target Group" style="text;html=1;strokeColor=none;fillColor=none;align=center;verticalAlign=middle;whiteSpace=wrap;rounded=0;" parent="BC36M6veNqZihQO0rV40-59" vertex="1">
          <mxGeometry x="65" y="260" width="90" height="30" as="geometry" />
        </mxCell>
        <mxCell id="BC36M6veNqZihQO0rV40-66" value="Auto Scaling Group" style="text;html=1;strokeColor=none;fillColor=none;align=center;verticalAlign=middle;whiteSpace=wrap;rounded=0;" parent="BC36M6veNqZihQO0rV40-59" vertex="1">
          <mxGeometry x="65" y="220" width="90" height="30" as="geometry" />
        </mxCell>
        <mxCell id="NsxSfpwMTWUYGSY4X4gR-45" value="Private EC2 for Frontend &amp;amp; Backend" style="text;html=1;strokeColor=none;fillColor=none;align=center;verticalAlign=middle;whiteSpace=wrap;rounded=0;" parent="BC36M6veNqZihQO0rV40-59" vertex="1">
          <mxGeometry x="50" y="157" width="120" height="30" as="geometry" />
        </mxCell>
        <mxCell id="BC36M6veNqZihQO0rV40-71" value="AWS RDS" style="text;html=1;strokeColor=none;fillColor=none;align=center;verticalAlign=middle;whiteSpace=wrap;rounded=0;" parent="1" vertex="1">
          <mxGeometry x="-5499.5" y="125" width="60" height="30" as="geometry" />
        </mxCell>
        <mxCell id="BC36M6veNqZihQO0rV40-67" style="edgeStyle=orthogonalEdgeStyle;rounded=0;orthogonalLoop=1;jettySize=auto;html=1;entryX=0.5;entryY=0;entryDx=0;entryDy=0;exitX=0.435;exitY=1.06;exitDx=0;exitDy=0;exitPerimeter=0;" parent="1" source="BC36M6veNqZihQO0rV40-58" edge="1">
          <mxGeometry relative="1" as="geometry">
            <mxPoint x="-6009" y="-178" as="sourcePoint" />
            <mxPoint x="-6009" y="-77" as="targetPoint" />
          </mxGeometry>
        </mxCell>
        <mxCell id="BC36M6veNqZihQO0rV40-57" value="Amazon EC2" style="sketch=0;outlineConnect=0;fontColor=#232F3E;gradientColor=none;strokeColor=#ffffff;fillColor=#232F3E;dashed=0;verticalLabelPosition=middle;verticalAlign=bottom;align=center;html=1;whiteSpace=wrap;fontSize=10;fontStyle=1;spacing=3;shape=mxgraph.aws4.productIcon;prIcon=mxgraph.aws4.ec2;" parent="1" vertex="1">
          <mxGeometry x="-6046.5" y="-328" width="80" height="100" as="geometry" />
        </mxCell>
        <mxCell id="BC36M6veNqZihQO0rV40-58" value="Public EC2" style="text;html=1;strokeColor=none;fillColor=none;align=center;verticalAlign=middle;whiteSpace=wrap;rounded=0;" parent="1" vertex="1">
          <mxGeometry x="-6043" y="-222" width="80" height="30" as="geometry" />
        </mxCell>
        <mxCell id="NsxSfpwMTWUYGSY4X4gR-36" style="edgeStyle=orthogonalEdgeStyle;rounded=0;orthogonalLoop=1;jettySize=auto;html=1;" parent="1" source="NsxSfpwMTWUYGSY4X4gR-2" target="BC36M6veNqZihQO0rV40-65" edge="1">
          <mxGeometry relative="1" as="geometry" />
        </mxCell>
        <mxCell id="NsxSfpwMTWUYGSY4X4gR-37" value="" style="edgeStyle=orthogonalEdgeStyle;rounded=0;orthogonalLoop=1;jettySize=auto;html=1;" parent="1" source="NsxSfpwMTWUYGSY4X4gR-2" target="NsxSfpwMTWUYGSY4X4gR-27" edge="1">
          <mxGeometry relative="1" as="geometry" />
        </mxCell>
        <mxCell id="NsxSfpwMTWUYGSY4X4gR-2" value="" style="outlineConnect=0;dashed=0;verticalLabelPosition=bottom;verticalAlign=top;align=center;html=1;shape=mxgraph.aws3.vpc_nat_gateway;fillColor=#F58536;gradientColor=none;" parent="1" vertex="1">
          <mxGeometry x="-5818" y="-58" width="69" height="72" as="geometry" />
        </mxCell>
        <mxCell id="NsxSfpwMTWUYGSY4X4gR-7" value="Nat Gateway" style="text;html=1;strokeColor=none;fillColor=none;align=center;verticalAlign=middle;whiteSpace=wrap;rounded=0;" parent="1" vertex="1">
          <mxGeometry x="-5749" y="-38.5" width="108.5" height="33" as="geometry" />
        </mxCell>
        <mxCell id="BC36M6veNqZihQO0rV40-68" value="" style="sketch=0;points=[[0,0,0],[0.25,0,0],[0.5,0,0],[0.75,0,0],[1,0,0],[0,1,0],[0.25,1,0],[0.5,1,0],[0.75,1,0],[1,1,0],[0,0.25,0],[0,0.5,0],[0,0.75,0],[1,0.25,0],[1,0.5,0],[1,0.75,0]];outlineConnect=0;fontColor=#232F3E;gradientColor=#4D72F3;gradientDirection=north;fillColor=#3334B9;strokeColor=#ffffff;dashed=0;verticalLabelPosition=bottom;verticalAlign=top;align=center;html=1;fontSize=12;fontStyle=0;aspect=fixed;shape=mxgraph.aws4.resourceIcon;resIcon=mxgraph.aws4.rds;" parent="1" vertex="1">
          <mxGeometry x="-5508.5" y="47" width="78" height="78" as="geometry" />
        </mxCell>
        <mxCell id="NsxSfpwMTWUYGSY4X4gR-6" style="edgeStyle=orthogonalEdgeStyle;rounded=0;orthogonalLoop=1;jettySize=auto;html=1;entryX=0.998;entryY=0.845;entryDx=0;entryDy=0;entryPerimeter=0;" parent="1" source="BC36M6veNqZihQO0rV40-68" target="BC36M6veNqZihQO0rV40-65" edge="1">
          <mxGeometry relative="1" as="geometry" />
        </mxCell>
        <mxCell id="BC36M6veNqZihQO0rV40-72" value="" style="outlineConnect=0;dashed=0;verticalLabelPosition=bottom;verticalAlign=top;align=center;html=1;shape=mxgraph.aws3.router;fillColor=#F58534;gradientColor=none;" parent="1" vertex="1">
          <mxGeometry x="-5819" y="-262" width="70" height="65" as="geometry" />
        </mxCell>
        <mxCell id="NsxSfpwMTWUYGSY4X4gR-17" value="" style="edgeStyle=orthogonalEdgeStyle;rounded=0;orthogonalLoop=1;jettySize=auto;html=1;" parent="1" target="NsxSfpwMTWUYGSY4X4gR-16" edge="1">
          <mxGeometry relative="1" as="geometry">
            <mxPoint x="-5466" y="-180" as="sourcePoint" />
          </mxGeometry>
        </mxCell>
        <mxCell id="NsxSfpwMTWUYGSY4X4gR-12" value="" style="outlineConnect=0;dashed=0;verticalLabelPosition=bottom;verticalAlign=top;align=center;html=1;shape=mxgraph.aws3.application_load_balancer;fillColor=#F58534;gradientColor=none;" parent="1" vertex="1">
          <mxGeometry x="-5500" y="-157" width="69" height="72" as="geometry" />
        </mxCell>
        <mxCell id="NsxSfpwMTWUYGSY4X4gR-14" style="edgeStyle=orthogonalEdgeStyle;rounded=0;orthogonalLoop=1;jettySize=auto;html=1;exitX=1.011;exitY=0.089;exitDx=0;exitDy=0;exitPerimeter=0;" parent="1" source="BC36M6veNqZihQO0rV40-65" edge="1">
          <mxGeometry relative="1" as="geometry">
            <mxPoint x="-5943" y="-62.5" as="sourcePoint" />
            <mxPoint x="-5500" y="-115.9565217391305" as="targetPoint" />
            <Array as="points">
              <mxPoint x="-5690" y="-63" />
              <mxPoint x="-5690" y="-116" />
            </Array>
          </mxGeometry>
        </mxCell>
        <mxCell id="NsxSfpwMTWUYGSY4X4gR-15" value="Load Balancer" style="text;html=1;strokeColor=none;fillColor=none;align=center;verticalAlign=middle;whiteSpace=wrap;rounded=0;" parent="1" vertex="1">
          <mxGeometry x="-5495.5" y="-78" width="60" height="30" as="geometry" />
        </mxCell>
        <mxCell id="NsxSfpwMTWUYGSY4X4gR-16" value="" style="outlineConnect=0;dashed=0;verticalLabelPosition=bottom;verticalAlign=top;align=center;html=1;shape=mxgraph.aws3.route_53;fillColor=#F58536;gradientColor=none;" parent="1" vertex="1">
          <mxGeometry x="-5501" y="-338" width="70.5" height="85.5" as="geometry" />
        </mxCell>
        <mxCell id="NsxSfpwMTWUYGSY4X4gR-18" value="Route 53" style="text;html=1;strokeColor=none;fillColor=none;align=center;verticalAlign=middle;whiteSpace=wrap;rounded=0;" parent="1" vertex="1">
          <mxGeometry x="-5495.75" y="-368" width="60" height="30" as="geometry" />
        </mxCell>
        <mxCell id="NsxSfpwMTWUYGSY4X4gR-33" style="edgeStyle=orthogonalEdgeStyle;rounded=0;orthogonalLoop=1;jettySize=auto;html=1;" parent="1" source="NsxSfpwMTWUYGSY4X4gR-27" target="BC36M6veNqZihQO0rV40-59" edge="1">
          <mxGeometry relative="1" as="geometry">
            <Array as="points">
              <mxPoint x="-5847" y="-157" />
              <mxPoint x="-5847" y="-140" />
              <mxPoint x="-5998" y="-140" />
            </Array>
          </mxGeometry>
        </mxCell>
        <mxCell id="NsxSfpwMTWUYGSY4X4gR-27" value="" style="outlineConnect=0;dashed=0;verticalLabelPosition=bottom;verticalAlign=top;align=center;html=1;shape=mxgraph.aws3.router;fillColor=#F58534;gradientColor=none;" parent="1" vertex="1">
          <mxGeometry x="-5819" y="-189" width="70" height="65" as="geometry" />
        </mxCell>
        <mxCell id="NsxSfpwMTWUYGSY4X4gR-5" value="Public Route Table" style="text;html=1;strokeColor=none;fillColor=none;align=center;verticalAlign=middle;whiteSpace=wrap;rounded=0;" parent="1" vertex="1">
          <mxGeometry x="-5739.5" y="-240.5" width="99" height="30" as="geometry" />
        </mxCell>
        <mxCell id="NsxSfpwMTWUYGSY4X4gR-28" value="Private Route Table" style="text;html=1;strokeColor=none;fillColor=none;align=center;verticalAlign=middle;whiteSpace=wrap;rounded=0;" parent="1" vertex="1">
          <mxGeometry x="-5730.5" y="-180" width="81" height="30" as="geometry" />
        </mxCell>
        <mxCell id="NsxSfpwMTWUYGSY4X4gR-42" value="Internet Gateway" style="text;html=1;strokeColor=none;fillColor=none;align=center;verticalAlign=middle;whiteSpace=wrap;rounded=0;" parent="1" vertex="1">
          <mxGeometry x="-5739.5" y="-333" width="110" height="30" as="geometry" />
        </mxCell>
      </root>
    </mxGraphModel>
  </diagram>
</mxfile>
